<svg xmlns="http://www.w3.org/2000/svg" width="400" height="400" style="">
    <rect id="backgroundrect" width="100%" height="100%" x="0" y="0" fill="none" stroke="none"/>
    <g class="currentLayer" style="">
        <title>Layer 1</title>
        <rect x="200.54053539037704" y="200.3861002922058" width="140" height="70" fill="#82bdff" id="svg_1" class=""/>
        <polygon
                points="164.09268021583557,305.0192904472351 164.09268021583557,165.0192904472351 94.78233170509338,305.0192904472351 "
                fill="#82bdff" id="svg_2" class="" transform="rotate(-89.97080993652344 129.4375,235.01928710937497) "/>
        <path d="M199.99999580687597,200.00000123244462 L269.6551693350929,200.00000123244462 A-69.65517352821693,-69.65517352821693 0 0 0 199.99999580687597,130.3448277042277 "
              fill="#82bdff" id="svg_3" class=""/>
        <polygon
                points="15,200 60,200 60,197 60,203 60,200 130,200 130,197 130,203 130,200 270,200 270,197 270,203 270,200         340,200 340,197 340,203 340,200 385,200 378,197 385,200 378,203 385,200"
                stroke="grey" id="svg_4"/>
        <polygon
                points="200,385 200,340 197,340 203,340 200,340 200,270 197,270 203,270 200,270 200,130 197,130 203,130         200,130 200,60 197,60 203,60 200,60 200,15 197,22 200,15 203,22 200,15"
                stroke="grey" id="svg_5"/>
        <circle r="2" cx="200" cy="200" fill="grey" id="svg_6"/>
        <circle id="dot" r="3" cx="200" cy="200" fill="grey"/>
        <text class="point" x="53" y="195" id="svg_7">-R</text>
        <text class="point" x="118" y="195" id="svg_8">-R/2</text>
        <text class="point" x="262" y="195" id="svg_9">R/2</text>
        <text class="point" x="335" y="195" id="svg_10">R</text>
        <text class="point" x="205" y="64" id="svg_11">R</text>
        <text class="point" x="205" y="134" id="svg_12">R/2</text>
        <text class="point" x="205" y="274" id="svg_13">-R/2</text>
        <text class="point" x="205" y="344" id="svg_14">-R</text>
        <text class="coordinate" x="5" y="10" id="svg_15">x=200.00, y=200.00</text>
    </g>
</svg>